<?xml version="1.0"?>
<!-- Generated by SVGo and Plotinum VG -->
<svg width="450pt" height="400pt" viewBox="0 0 450 400"
	xmlns="http://www.w3.org/2000/svg"
	xmlns:xlink="http://www.w3.org/1999/xlink">
<g transform="scale(1, -1) translate(0, -400)">
<path d="M0,0L450,0L450,400L0,400Z" style="fill:#FFFFFF" />
<text x="66.452" y="-3.252" transform="scale(1, -1)"
	style="font-family:Liberation Serif;font-variant:normal;font-weight:normal;font-style:normal;font-size:10px">-0.8</text>
<text x="239.06" y="-3.252" transform="scale(1, -1)"
	style="font-family:Liberation Serif;font-variant:normal;font-weight:normal;font-style:normal;font-size:10px">0.0</text>
<text x="410.01" y="-3.252" transform="scale(1, -1)"
	style="font-family:Liberation Serif;font-variant:normal;font-weight:normal;font-style:normal;font-size:10px">0.8</text>
<path d="M74.367,11.074L74.367,19.074" style="fill:none;stroke:#000000;stroke-width:0.5" />
<path d="M245.31,11.074L245.31,19.074" style="fill:none;stroke:#000000;stroke-width:0.5" />
<path d="M416.26,11.074L416.26,19.074" style="fill:none;stroke:#000000;stroke-width:0.5" />
<path d="M159.84,15.074L159.84,19.074" style="fill:none;stroke:#000000;stroke-width:0.5" />
<path d="M330.78,15.074L330.78,19.074" style="fill:none;stroke:#000000;stroke-width:0.5" />
<path d="M35.08,19.074L447,19.074" style="fill:none;stroke:#000000;stroke-width:0.5" />
<text x="0" y="-62.17" transform="scale(1, -1)"
	style="font-family:Liberation Serif;font-variant:normal;font-weight:normal;font-style:normal;font-size:10px">-0.8</text>
<text x="3.3301" y="-218.65" transform="scale(1, -1)"
	style="font-family:Liberation Serif;font-variant:normal;font-weight:normal;font-style:normal;font-size:10px">0.0</text>
<text x="3.3301" y="-375.13" transform="scale(1, -1)"
	style="font-family:Liberation Serif;font-variant:normal;font-weight:normal;font-style:normal;font-size:10px">0.8</text>
<path d="M18.33,64.455L26.33,64.455" style="fill:none;stroke:#000000;stroke-width:0.5" />
<path d="M18.33,220.94L26.33,220.94" style="fill:none;stroke:#000000;stroke-width:0.5" />
<path d="M18.33,377.42L26.33,377.42" style="fill:none;stroke:#000000;stroke-width:0.5" />
<path d="M22.33,142.7L26.33,142.7" style="fill:none;stroke:#000000;stroke-width:0.5" />
<path d="M22.33,299.18L26.33,299.18" style="fill:none;stroke:#000000;stroke-width:0.5" />
<path d="M26.33,27.324L26.33,397" style="fill:none;stroke:#000000;stroke-width:0.5" />
<path d="M248.31,220.94A3,3 0 1 1 242.31,220.94A3,3 0 1 1 248.31,220.94Z" style="fill:#0000FF" />
<path d="M248.21,222.91A3,3 0 1 1 242.21,222.91A3,3 0 1 1 248.21,222.91Z" style="fill:#0000FF" />
<path d="M248.3,224.89A3,3 0 1 1 242.3,224.89A3,3 0 1 1 248.3,224.89Z" style="fill:#0000FF" />
<path d="M250.6,226.48A3,3 0 1 1 244.6,226.48A3,3 0 1 1 250.6,226.48Z" style="fill:#0000FF" />
<path d="M250.22,228.64A3,3 0 1 1 244.22,228.64A3,3 0 1 1 250.22,228.64Z" style="fill:#0000FF" />
<path d="M244.46,230.17A3,3 0 1 1 238.46,230.17A3,3 0 1 1 244.46,230.17Z" style="fill:#0000FF" />
<path d="M247.61,232.77A3,3 0 1 1 241.61,232.77A3,3 0 1 1 247.61,232.77Z" style="fill:#0000FF" />
<path d="M247.17,234.73A3,3 0 1 1 241.17,234.73A3,3 0 1 1 247.17,234.73Z" style="fill:#0000FF" />
<path d="M261.19,231.46A3,3 0 1 1 255.19,231.46A3,3 0 1 1 261.19,231.46Z" style="fill:#0000FF" />
<path d="M267.29,224.71A3,3 0 1 1 261.29,224.71A3,3 0 1 1 267.29,224.71Z" style="fill:#0000FF" />
<path d="M267.94,229.16A3,3 0 1 1 261.94,229.16A3,3 0 1 1 267.94,229.16Z" style="fill:#0000FF" />
<path d="M272.05,221.51A3,3 0 1 1 266.05,221.51A3,3 0 1 1 272.05,221.51Z" style="fill:#0000FF" />
<path d="M260.23,241.98A3,3 0 1 1 254.23,241.98A3,3 0 1 1 260.23,241.98Z" style="fill:#0000FF" />
<path d="M276.36,221.59A3,3 0 1 1 270.36,221.59A3,3 0 1 1 276.36,221.59Z" style="fill:#0000FF" />
<path d="M268.59,200.42A3,3 0 1 1 262.59,200.42A3,3 0 1 1 268.59,200.42Z" style="fill:#0000FF" />
<path d="M280.66,219.62A3,3 0 1 1 274.66,219.62A3,3 0 1 1 280.66,219.62Z" style="fill:#0000FF" />
<path d="M282.85,220.92A3,3 0 1 1 276.85,220.92A3,3 0 1 1 282.85,220.92Z" style="fill:#0000FF" />
<path d="M277.87,240.83A3,3 0 1 1 271.87,240.83A3,3 0 1 1 277.87,240.83Z" style="fill:#0000FF" />
<path d="M264.3,188.52A3,3 0 1 1 258.3,188.52A3,3 0 1 1 264.3,188.52Z" style="fill:#0000FF" />
<path d="M281.82,199.29A3,3 0 1 1 275.82,199.29A3,3 0 1 1 281.82,199.29Z" style="fill:#0000FF" />
<path d="M277.03,191.44A3,3 0 1 1 271.03,191.44A3,3 0 1 1 277.03,191.44Z" style="fill:#0000FF" />
<path d="M232.05,182.21A3,3 0 1 1 226.05,182.21A3,3 0 1 1 232.05,182.21Z" style="fill:#0000FF" />
<path d="M279.22,187.93A3,3 0 1 1 273.22,187.93A3,3 0 1 1 279.22,187.93Z" style="fill:#0000FF" />
<path d="M263,177.53A3,3 0 1 1 257,177.53A3,3 0 1 1 263,177.53Z" style="fill:#0000FF" />
<path d="M292.45,196.11A3,3 0 1 1 286.45,196.11A3,3 0 1 1 292.45,196.11Z" style="fill:#0000FF" />
<path d="M288.94,188.43A3,3 0 1 1 282.94,188.43A3,3 0 1 1 288.94,188.43Z" style="fill:#0000FF" />
<path d="M284.21,181.45A3,3 0 1 1 278.21,181.45A3,3 0 1 1 284.21,181.45Z" style="fill:#0000FF" />
<path d="M275.54,173.77A3,3 0 1 1 269.54,173.77A3,3 0 1 1 275.54,173.77Z" style="fill:#0000FF" />
<path d="M258.49,166.41A3,3 0 1 1 252.49,166.41A3,3 0 1 1 258.49,166.41Z" style="fill:#0000FF" />
<path d="M266.24,166.04A3,3 0 1 1 260.24,166.04A3,3 0 1 1 266.24,166.04Z" style="fill:#0000FF" />
<path d="M262.2,163.04A3,3 0 1 1 256.2,163.04A3,3 0 1 1 262.2,163.04Z" style="fill:#0000FF" />
<path d="M259.26,160.51A3,3 0 1 1 253.26,160.51A3,3 0 1 1 259.26,160.51Z" style="fill:#0000FF" />
<path d="M291.51,171.6A3,3 0 1 1 285.51,171.6A3,3 0 1 1 291.51,171.6Z" style="fill:#0000FF" />
<path d="M206.45,168.18A3,3 0 1 1 200.45,168.18A3,3 0 1 1 206.45,168.18Z" style="fill:#0000FF" />
<path d="M233.11,155.22A3,3 0 1 1 227.11,155.22A3,3 0 1 1 233.11,155.22Z" style="fill:#0000FF" />
<path d="M200.23,167.6A3,3 0 1 1 194.23,167.6A3,3 0 1 1 200.23,167.6Z" style="fill:#0000FF" />
<path d="M203.76,162.66A3,3 0 1 1 197.76,162.66A3,3 0 1 1 203.76,162.66Z" style="fill:#0000FF" />
<path d="M200.54,162.36A3,3 0 1 1 194.54,162.36A3,3 0 1 1 200.54,162.36Z" style="fill:#0000FF" />
<path d="M240.81,146.17A3,3 0 1 1 234.81,146.17A3,3 0 1 1 240.81,146.17Z" style="fill:#0000FF" />
<path d="M169.48,193.9A3,3 0 1 1 163.48,193.9A3,3 0 1 1 169.48,193.9Z" style="fill:#0000FF" />
<path d="M195.9,158.14A3,3 0 1 1 189.9,158.14A3,3 0 1 1 195.9,158.14Z" style="fill:#0000FF" />
<path d="M179.27,170.27A3,3 0 1 1 173.27,170.27A3,3 0 1 1 179.27,170.27Z" style="fill:#0000FF" />
<path d="M195.52,153.48A3,3 0 1 1 189.52,153.48A3,3 0 1 1 195.52,153.48Z" style="fill:#0000FF" />
<path d="M177.37,166.15A3,3 0 1 1 171.37,166.15A3,3 0 1 1 177.37,166.15Z" style="fill:#0000FF" />
<path d="M159.06,191.22A3,3 0 1 1 153.06,191.22A3,3 0 1 1 159.06,191.22Z" style="fill:#0000FF" />
<path d="M169.45,272.84A3,3 0 1 1 163.45,272.84A3,3 0 1 1 169.45,272.84Z" style="fill:#0000FF" />
<path d="M169.51,165.65A3,3 0 1 1 163.51,165.65A3,3 0 1 1 169.51,165.65Z" style="fill:#0000FF" />
<path d="M154.49,185.63A3,3 0 1 1 148.49,185.63A3,3 0 1 1 154.49,185.63Z" style="fill:#0000FF" />
<path d="M145.67,208.06A3,3 0 1 1 139.67,208.06A3,3 0 1 1 145.67,208.06Z" style="fill:#0000FF" />
<path d="M145.8,244.76A3,3 0 1 1 139.8,244.76A3,3 0 1 1 145.8,244.76Z" style="fill:#0000FF" />
<path d="M140.46,217.43A3,3 0 1 1 134.46,217.43A3,3 0 1 1 140.46,217.43Z" style="fill:#0000FF" />
<path d="M144.34,254.03A3,3 0 1 1 138.34,254.03A3,3 0 1 1 144.34,254.03Z" style="fill:#0000FF" />
<path d="M137.72,203.41A3,3 0 1 1 131.72,203.41A3,3 0 1 1 137.72,203.41Z" style="fill:#0000FF" />
<path d="M155.55,282.22A3,3 0 1 1 149.55,282.22A3,3 0 1 1 155.55,282.22Z" style="fill:#0000FF" />
<path d="M137.33,253.53A3,3 0 1 1 131.33,253.53A3,3 0 1 1 137.33,253.53Z" style="fill:#0000FF" />
<path d="M165.58,298.87A3,3 0 1 1 159.58,298.87A3,3 0 1 1 165.58,298.87Z" style="fill:#0000FF" />
<path d="M139.53,269.17A3,3 0 1 1 133.53,269.17A3,3 0 1 1 139.53,269.17Z" style="fill:#0000FF" />
<path d="M182.55,316.12A3,3 0 1 1 176.55,316.12A3,3 0 1 1 182.55,316.12Z" style="fill:#0000FF" />
<path d="M203.63,327.98A3,3 0 1 1 197.63,327.98A3,3 0 1 1 203.63,327.98Z" style="fill:#0000FF" />
<path d="M174.52,315.94A3,3 0 1 1 168.52,315.94A3,3 0 1 1 174.52,315.94Z" style="fill:#0000FF" />
<path d="M154.51,302.67A3,3 0 1 1 148.51,302.67A3,3 0 1 1 154.51,302.67Z" style="fill:#0000FF" />
<path d="M239.68,341.2A3,3 0 1 1 233.68,341.2A3,3 0 1 1 239.68,341.2Z" style="fill:#0000FF" />
<path d="M234.2,342.75A3,3 0 1 1 228.2,342.75A3,3 0 1 1 234.2,342.75Z" style="fill:#0000FF" />
<path d="M275.72,342.85A3,3 0 1 1 269.72,342.85A3,3 0 1 1 275.72,342.85Z" style="fill:#0000FF" />
<path d="M203.74,340.62A3,3 0 1 1 197.74,340.62A3,3 0 1 1 203.74,340.62Z" style="fill:#0000FF" />
<path d="M310.8,335.92A3,3 0 1 1 304.8,335.92A3,3 0 1 1 310.8,335.92Z" style="fill:#0000FF" />
<path d="M346.49,315.42A3,3 0 1 1 340.49,315.42A3,3 0 1 1 346.49,315.42Z" style="fill:#0000FF" />
<path d="M307.09,341.88A3,3 0 1 1 301.09,341.88A3,3 0 1 1 307.09,341.88Z" style="fill:#0000FF" />
<path d="M360.3,307.78A3,3 0 1 1 354.3,307.78A3,3 0 1 1 360.3,307.78Z" style="fill:#0000FF" />
<path d="M348.56,321.76A3,3 0 1 1 342.56,321.76A3,3 0 1 1 348.56,321.76Z" style="fill:#0000FF" />
<path d="M349.11,323.96A3,3 0 1 1 343.11,323.96A3,3 0 1 1 349.11,323.96Z" style="fill:#0000FF" />
<path d="M320.3,344.77A3,3 0 1 1 314.3,344.77A3,3 0 1 1 320.3,344.77Z" style="fill:#0000FF" />
<path d="M400.93,247.74A3,3 0 1 1 394.93,247.74A3,3 0 1 1 400.93,247.74Z" style="fill:#0000FF" />
<path d="M394.67,274.36A3,3 0 1 1 388.67,274.36A3,3 0 1 1 394.67,274.36Z" style="fill:#0000FF" />
<path d="M405.19,193.48A3,3 0 1 1 399.19,193.48A3,3 0 1 1 405.19,193.48Z" style="fill:#0000FF" />
<path d="M408.49,199.52A3,3 0 1 1 402.49,199.52A3,3 0 1 1 408.49,199.52Z" style="fill:#0000FF" />
<path d="M405.7,178.6A3,3 0 1 1 399.7,178.6A3,3 0 1 1 405.7,178.6Z" style="fill:#0000FF" />
<path d="M413.59,236.88A3,3 0 1 1 407.59,236.88A3,3 0 1 1 413.59,236.88Z" style="fill:#0000FF" />
<path d="M366.67,111.34A3,3 0 1 1 360.67,111.34A3,3 0 1 1 366.67,111.34Z" style="fill:#0000FF" />
<path d="M412.92,180.22A3,3 0 1 1 406.92,180.22A3,3 0 1 1 412.92,180.22Z" style="fill:#0000FF" />
<path d="M418.39,248.2A3,3 0 1 1 412.39,248.2A3,3 0 1 1 418.39,248.2Z" style="fill:#0000FF" />
<path d="M408.39,156.59A3,3 0 1 1 402.39,156.59A3,3 0 1 1 408.39,156.59Z" style="fill:#0000FF" />
<path d="M382.37,115.15A3,3 0 1 1 376.37,115.15A3,3 0 1 1 382.37,115.15Z" style="fill:#0000FF" />
<path d="M289.91,61.429A3,3 0 1 1 283.91,61.429A3,3 0 1 1 289.91,61.429Z" style="fill:#0000FF" />
<path d="M406.65,140.08A3,3 0 1 1 400.65,140.08A3,3 0 1 1 406.65,140.08Z" style="fill:#0000FF" />
<path d="M370.35,95.541A3,3 0 1 1 364.35,95.541A3,3 0 1 1 370.35,95.541Z" style="fill:#0000FF" />
<path d="M389.05,110.15A3,3 0 1 1 383.05,110.15A3,3 0 1 1 389.05,110.15Z" style="fill:#0000FF" />
<path d="M402.64,123.01A3,3 0 1 1 396.64,123.01A3,3 0 1 1 402.64,123.01Z" style="fill:#0000FF" />
<path d="M339.81,68.571A3,3 0 1 1 333.81,68.571A3,3 0 1 1 339.81,68.571Z" style="fill:#0000FF" />
<path d="M111.85,97.172A3,3 0 1 1 105.85,97.172A3,3 0 1 1 111.85,97.172Z" style="fill:#0000FF" />
<path d="M310.61,52.51A3,3 0 1 1 304.61,52.51A3,3 0 1 1 310.61,52.51Z" style="fill:#0000FF" />
<path d="M407.02,115.01A3,3 0 1 1 401.02,115.01A3,3 0 1 1 407.02,115.01Z" style="fill:#0000FF" />
<path d="M197.01,45.335A3,3 0 1 1 191.01,45.335A3,3 0 1 1 197.01,45.335Z" style="fill:#0000FF" />
<path d="M211.04,40.384A3,3 0 1 1 205.04,40.384A3,3 0 1 1 211.04,40.384Z" style="fill:#0000FF" />
<path d="M304.34,42.435A3,3 0 1 1 298.34,42.435A3,3 0 1 1 304.34,42.435Z" style="fill:#0000FF" />
<path d="M322.21,45.851A3,3 0 1 1 316.21,45.851A3,3 0 1 1 322.21,45.851Z" style="fill:#0000FF" />
<path d="M325.26,44.828A3,3 0 1 1 319.26,44.828A3,3 0 1 1 325.26,44.828Z" style="fill:#0000FF" />
<path d="M87.716,97.979A3,3 0 1 1 81.716,97.979A3,3 0 1 1 87.716,97.979Z" style="fill:#0000FF" />
<path d="M250.82,27.324A3,3 0 1 1 244.82,27.324A3,3 0 1 1 250.82,27.324Z" style="fill:#0000FF" />
<path d="M151.14,46.728A3,3 0 1 1 145.14,46.728A3,3 0 1 1 151.14,46.728Z" style="fill:#0000FF" />
<path d="M248.31,220.94A3,3 0 1 1 242.31,220.94A3,3 0 1 1 248.31,220.94Z" style="fill:#FF0000" />
<path d="M246.9,219.44A3,3 0 1 1 240.9,219.44A3,3 0 1 1 246.9,219.44Z" style="fill:#FF0000" />
<path d="M245.18,218.22A3,3 0 1 1 239.18,218.22A3,3 0 1 1 245.18,218.22Z" style="fill:#FF0000" />
<path d="M243.47,217A3,3 0 1 1 237.47,217A3,3 0 1 1 243.47,217Z" style="fill:#FF0000" />
<path d="M247.25,213.09A3,3 0 1 1 241.25,213.09A3,3 0 1 1 247.25,213.09Z" style="fill:#FF0000" />
<path d="M242.48,212.62A3,3 0 1 1 236.48,212.62A3,3 0 1 1 242.48,212.62Z" style="fill:#FF0000" />
<path d="M238.24,213.48A3,3 0 1 1 232.24,213.48A3,3 0 1 1 238.24,213.48Z" style="fill:#FF0000" />
<path d="M233.2,220.72A3,3 0 1 1 227.2,220.72A3,3 0 1 1 233.2,220.72Z" style="fill:#FF0000" />
<path d="M231.09,222.02A3,3 0 1 1 225.09,222.02A3,3 0 1 1 231.09,222.02Z" style="fill:#FF0000" />
<path d="M229.52,216.43A3,3 0 1 1 223.52,216.43A3,3 0 1 1 229.52,216.43Z" style="fill:#FF0000" />
<path d="M228.54,228.86A3,3 0 1 1 222.54,228.86A3,3 0 1 1 228.54,228.86Z" style="fill:#FF0000" />
<path d="M224.75,223.58A3,3 0 1 1 218.75,223.58A3,3 0 1 1 224.75,223.58Z" style="fill:#FF0000" />
<path d="M224.86,231.01A3,3 0 1 1 218.86,231.01A3,3 0 1 1 224.86,231.01Z" style="fill:#FF0000" />
<path d="M220.7,225.51A3,3 0 1 1 214.7,225.51A3,3 0 1 1 220.7,225.51Z" style="fill:#FF0000" />
<path d="M219.47,229.2A3,3 0 1 1 213.47,229.2A3,3 0 1 1 219.47,229.2Z" style="fill:#FF0000" />
<path d="M242.34,250.06A3,3 0 1 1 236.34,250.06A3,3 0 1 1 242.34,250.06Z" style="fill:#FF0000" />
<path d="M226.06,245.11A3,3 0 1 1 220.06,245.11A3,3 0 1 1 226.06,245.11Z" style="fill:#FF0000" />
<path d="M262.71,251.83A3,3 0 1 1 256.71,251.83A3,3 0 1 1 262.71,251.83Z" style="fill:#FF0000" />
<path d="M212.73,235.21A3,3 0 1 1 206.73,235.21A3,3 0 1 1 212.73,235.21Z" style="fill:#FF0000" />
<path d="M207.72,215.59A3,3 0 1 1 201.72,215.59A3,3 0 1 1 207.72,215.59Z" style="fill:#FF0000" />
<path d="M227.72,255.67A3,3 0 1 1 221.72,255.67A3,3 0 1 1 227.72,255.67Z" style="fill:#FF0000" />
<path d="M208.43,240.65A3,3 0 1 1 202.43,240.65A3,3 0 1 1 208.43,240.65Z" style="fill:#FF0000" />
<path d="M252,264.27A3,3 0 1 1 246,264.27A3,3 0 1 1 252,264.27Z" style="fill:#FF0000" />
<path d="M244.9,266.27A3,3 0 1 1 238.9,266.27A3,3 0 1 1 244.9,266.27Z" style="fill:#FF0000" />
<path d="M230.57,265.49A3,3 0 1 1 224.57,265.49A3,3 0 1 1 230.57,265.49Z" style="fill:#FF0000" />
<path d="M237.86,269.39A3,3 0 1 1 231.86,269.39A3,3 0 1 1 237.86,269.39Z" style="fill:#FF0000" />
<path d="M257.75,271.57A3,3 0 1 1 251.75,271.57A3,3 0 1 1 257.75,271.57Z" style="fill:#FF0000" />
<path d="M228.7,271.17A3,3 0 1 1 222.7,271.17A3,3 0 1 1 228.7,271.17Z" style="fill:#FF0000" />
<path d="M205.88,260.32A3,3 0 1 1 199.88,260.32A3,3 0 1 1 205.88,260.32Z" style="fill:#FF0000" />
<path d="M244.87,278.15A3,3 0 1 1 238.87,278.15A3,3 0 1 1 244.87,278.15Z" style="fill:#FF0000" />
<path d="M247.91,280.21A3,3 0 1 1 241.91,280.21A3,3 0 1 1 247.91,280.21Z" style="fill:#FF0000" />
<path d="M308.05,248.53A3,3 0 1 1 302.05,248.53A3,3 0 1 1 308.05,248.53Z" style="fill:#FF0000" />
<path d="M312.7,243.82A3,3 0 1 1 306.7,243.82A3,3 0 1 1 312.7,243.82Z" style="fill:#FF0000" />
<path d="M319.14,214.04A3,3 0 1 1 313.14,214.04A3,3 0 1 1 319.14,214.04Z" style="fill:#FF0000" />
<path d="M315.84,247.24A3,3 0 1 1 309.84,247.24A3,3 0 1 1 315.84,247.24Z" style="fill:#FF0000" />
<path d="M312.74,257.04A3,3 0 1 1 306.74,257.04A3,3 0 1 1 312.74,257.04Z" style="fill:#FF0000" />
<path d="M295.41,277.51A3,3 0 1 1 289.41,277.51A3,3 0 1 1 295.41,277.51Z" style="fill:#FF0000" />
<path d="M326.99,233.49A3,3 0 1 1 320.99,233.49A3,3 0 1 1 326.99,233.49Z" style="fill:#FF0000" />
<path d="M293.18,283.78A3,3 0 1 1 287.18,283.78A3,3 0 1 1 293.18,283.78Z" style="fill:#FF0000" />
<path d="M269.96,295.4A3,3 0 1 1 263.96,295.4A3,3 0 1 1 269.96,295.4Z" style="fill:#FF0000" />
<path d="M327.12,253.22A3,3 0 1 1 321.12,253.22A3,3 0 1 1 327.12,253.22Z" style="fill:#FF0000" />
<path d="M335.07,236.91A3,3 0 1 1 329.07,236.91A3,3 0 1 1 335.07,236.91Z" style="fill:#FF0000" />
<path d="M337.9,208.28A3,3 0 1 1 331.9,208.28A3,3 0 1 1 337.9,208.28Z" style="fill:#FF0000" />
<path d="M329.25,262.52A3,3 0 1 1 323.25,262.52A3,3 0 1 1 329.25,262.52Z" style="fill:#FF0000" />
<path d="M334.09,183.63A3,3 0 1 1 328.09,183.63A3,3 0 1 1 334.09,183.63Z" style="fill:#FF0000" />
<path d="M345.3,225.73A3,3 0 1 1 339.3,225.73A3,3 0 1 1 345.3,225.73Z" style="fill:#FF0000" />
<path d="M329.94,169.2A3,3 0 1 1 323.94,169.2A3,3 0 1 1 329.94,169.2Z" style="fill:#FF0000" />
<path d="M309.12,146.6A3,3 0 1 1 303.12,146.6A3,3 0 1 1 309.12,146.6Z" style="fill:#FF0000" />
<path d="M346.02,189.4A3,3 0 1 1 340.02,189.4A3,3 0 1 1 346.02,189.4Z" style="fill:#FF0000" />
<path d="M235.73,124.81A3,3 0 1 1 229.73,124.81A3,3 0 1 1 235.73,124.81Z" style="fill:#FF0000" />
<path d="M289.27,129.54A3,3 0 1 1 283.27,129.54A3,3 0 1 1 289.27,129.54Z" style="fill:#FF0000" />
<path d="M201.99,129.53A3,3 0 1 1 195.99,129.53A3,3 0 1 1 201.99,129.53Z" style="fill:#FF0000" />
<path d="M317.78,140.24A3,3 0 1 1 311.78,140.24A3,3 0 1 1 317.78,140.24Z" style="fill:#FF0000" />
<path d="M347.95,169.49A3,3 0 1 1 341.95,169.49A3,3 0 1 1 347.95,169.49Z" style="fill:#FF0000" />
<path d="M312.1,131.64A3,3 0 1 1 306.1,131.64A3,3 0 1 1 312.1,131.64Z" style="fill:#FF0000" />
<path d="M183.29,130.02A3,3 0 1 1 177.29,130.02A3,3 0 1 1 183.29,130.02Z" style="fill:#FF0000" />
<path d="M178.71,130.48A3,3 0 1 1 172.71,130.48A3,3 0 1 1 178.71,130.48Z" style="fill:#FF0000" />
<path d="M232.51,109.25A3,3 0 1 1 226.51,109.25A3,3 0 1 1 232.51,109.25Z" style="fill:#FF0000" />
<path d="M176.61,127A3,3 0 1 1 170.61,127A3,3 0 1 1 176.61,127Z" style="fill:#FF0000" />
<path d="M183.61,120.53A3,3 0 1 1 177.61,120.53A3,3 0 1 1 183.61,120.53Z" style="fill:#FF0000" />
<path d="M166.63,128.94A3,3 0 1 1 160.63,128.94A3,3 0 1 1 166.63,128.94Z" style="fill:#FF0000" />
<path d="M202.38,107.99A3,3 0 1 1 196.38,107.99A3,3 0 1 1 202.38,107.99Z" style="fill:#FF0000" />
<path d="M259.74,98.886A3,3 0 1 1 253.74,98.886A3,3 0 1 1 259.74,98.886Z" style="fill:#FF0000" />
<path d="M288.03,101.89A3,3 0 1 1 282.03,101.89A3,3 0 1 1 288.03,101.89Z" style="fill:#FF0000" />
<path d="M124.71,164.48A3,3 0 1 1 118.71,164.48A3,3 0 1 1 124.71,164.48Z" style="fill:#FF0000" />
<path d="M149.23,130.01A3,3 0 1 1 143.23,130.01A3,3 0 1 1 149.23,130.01Z" style="fill:#FF0000" />
<path d="M238.11,90.87A3,3 0 1 1 232.11,90.87A3,3 0 1 1 238.11,90.87Z" style="fill:#FF0000" />
<path d="M116.45,166.59A3,3 0 1 1 110.45,166.59A3,3 0 1 1 116.45,166.59Z" style="fill:#FF0000" />
<path d="M124.93,148.17A3,3 0 1 1 118.93,148.17A3,3 0 1 1 124.93,148.17Z" style="fill:#FF0000" />
<path d="M195.91,93.326A3,3 0 1 1 189.91,93.326A3,3 0 1 1 195.91,93.326Z" style="fill:#FF0000" />
<path d="M101.16,189.58A3,3 0 1 1 95.158,189.58A3,3 0 1 1 101.16,189.58Z" style="fill:#FF0000" />
<path d="M104.2,173.24A3,3 0 1 1 98.196,173.24A3,3 0 1 1 104.2,173.24Z" style="fill:#FF0000" />
<path d="M96.943,253.15A3,3 0 1 1 90.943,253.15A3,3 0 1 1 96.943,253.15Z" style="fill:#FF0000" />
<path d="M131.05,124.6A3,3 0 1 1 125.05,124.6A3,3 0 1 1 131.05,124.6Z" style="fill:#FF0000" />
<path d="M184.05,354.79A3,3 0 1 1 178.05,354.79A3,3 0 1 1 184.05,354.79Z" style="fill:#FF0000" />
<path d="M157.78,343.78A3,3 0 1 1 151.78,343.78A3,3 0 1 1 157.78,343.78Z" style="fill:#FF0000" />
<path d="M116.77,310.65A3,3 0 1 1 110.77,310.65A3,3 0 1 1 116.77,310.65Z" style="fill:#FF0000" />
<path d="M104.2,296.71A3,3 0 1 1 98.196,296.71A3,3 0 1 1 104.2,296.71Z" style="fill:#FF0000" />
<path d="M186.7,364.36A3,3 0 1 1 180.7,364.36A3,3 0 1 1 186.7,364.36Z" style="fill:#FF0000" />
<path d="M91.682,282.63A3,3 0 1 1 85.682,282.63A3,3 0 1 1 91.682,282.63Z" style="fill:#FF0000" />
<path d="M224.12,377.44A3,3 0 1 1 218.12,377.44A3,3 0 1 1 224.12,377.44Z" style="fill:#FF0000" />
<path d="M179.37,368A3,3 0 1 1 173.37,368A3,3 0 1 1 179.37,368Z" style="fill:#FF0000" />
<path d="M149.03,355.06A3,3 0 1 1 143.03,355.06A3,3 0 1 1 149.03,355.06Z" style="fill:#FF0000" />
<path d="M105.37,319.78A3,3 0 1 1 99.368,319.78A3,3 0 1 1 105.37,319.78Z" style="fill:#FF0000" />
<path d="M182.5,375.58A3,3 0 1 1 176.5,375.58A3,3 0 1 1 182.5,375.58Z" style="fill:#FF0000" />
<path d="M332.19,370.3A3,3 0 1 1 326.19,370.3A3,3 0 1 1 332.19,370.3Z" style="fill:#FF0000" />
<path d="M94.951,316.66A3,3 0 1 1 88.951,316.66A3,3 0 1 1 94.951,316.66Z" style="fill:#FF0000" />
<path d="M125.83,351.23A3,3 0 1 1 119.83,351.23A3,3 0 1 1 125.83,351.23Z" style="fill:#FF0000" />
<path d="M96.578,325.52A3,3 0 1 1 90.578,325.52A3,3 0 1 1 96.578,325.52Z" style="fill:#FF0000" />
<path d="M208.7,393A3,3 0 1 1 202.7,393A3,3 0 1 1 208.7,393Z" style="fill:#FF0000" />
<path d="M275.54,397A3,3 0 1 1 269.54,397A3,3 0 1 1 275.54,397Z" style="fill:#FF0000" />
<path d="M358.35,369.87A3,3 0 1 1 352.35,369.87A3,3 0 1 1 358.35,369.87Z" style="fill:#FF0000" />
<path d="M357.95,372.49A3,3 0 1 1 351.95,372.49A3,3 0 1 1 357.95,372.49Z" style="fill:#FF0000" />
<path d="M437.79,160.29A3,3 0 1 1 431.79,160.29A3,3 0 1 1 437.79,160.29Z" style="fill:#FF0000" />
<path d="M429.44,304.61A3,3 0 1 1 423.44,304.61A3,3 0 1 1 429.44,304.61Z" style="fill:#FF0000" />
<path d="M399.2,348.03A3,3 0 1 1 393.2,348.03A3,3 0 1 1 399.2,348.03Z" style="fill:#FF0000" />
<path d="M388.27,360.8A3,3 0 1 1 382.27,360.8A3,3 0 1 1 388.27,360.8Z" style="fill:#FF0000" />
<path d="M373.48,374.57A3,3 0 1 1 367.48,374.57A3,3 0 1 1 373.48,374.57Z" style="fill:#FF0000" />
<path d="M450,279.29A3,3 0 1 1 444,279.29A3,3 0 1 1 450,279.29Z" style="fill:#FF0000" />
<path d="M416.69,100.51A3,3 0 1 1 410.69,100.51A3,3 0 1 1 416.69,100.51Z" style="fill:#FF0000" />
<path d="M248.31,220.94A3,3 0 1 1 242.31,220.94A3,3 0 1 1 248.31,220.94Z" style="fill:#00FF00" />
<path d="M250.31,220.18A3,3 0 1 1 244.31,220.18A3,3 0 1 1 250.31,220.18Z" style="fill:#00FF00" />
<path d="M252.28,222.49A3,3 0 1 1 246.28,222.49A3,3 0 1 1 252.28,222.49Z" style="fill:#00FF00" />
<path d="M253.78,224.12A3,3 0 1 1 247.78,224.12A3,3 0 1 1 253.78,224.12Z" style="fill:#00FF00" />
<path d="M256.92,220.38A3,3 0 1 1 250.92,220.38A3,3 0 1 1 256.92,220.38Z" style="fill:#00FF00" />
<path d="M258.12,216.81A3,3 0 1 1 252.12,216.81A3,3 0 1 1 258.12,216.81Z" style="fill:#00FF00" />
<path d="M256.87,212.04A3,3 0 1 1 250.87,212.04A3,3 0 1 1 256.87,212.04Z" style="fill:#00FF00" />
<path d="M261.08,213.54A3,3 0 1 1 255.08,213.54A3,3 0 1 1 261.08,213.54Z" style="fill:#00FF00" />
<path d="M261.23,210.45A3,3 0 1 1 255.23,210.45A3,3 0 1 1 261.23,210.45Z" style="fill:#00FF00" />
<path d="M265.96,213.51A3,3 0 1 1 259.96,213.51A3,3 0 1 1 265.96,213.51Z" style="fill:#00FF00" />
<path d="M257.7,203.14A3,3 0 1 1 251.7,203.14A3,3 0 1 1 257.7,203.14Z" style="fill:#00FF00" />
<path d="M271.87,223.66A3,3 0 1 1 265.87,223.66A3,3 0 1 1 271.87,223.66Z" style="fill:#00FF00" />
<path d="M270.17,208.21A3,3 0 1 1 264.17,208.21A3,3 0 1 1 270.17,208.21Z" style="fill:#00FF00" />
<path d="M258.11,196.87A3,3 0 1 1 252.11,196.87A3,3 0 1 1 258.11,196.87Z" style="fill:#00FF00" />
<path d="M244.38,193.51A3,3 0 1 1 238.38,193.51A3,3 0 1 1 244.38,193.51Z" style="fill:#00FF00" />
<path d="M279.33,212.45A3,3 0 1 1 273.33,212.45A3,3 0 1 1 279.33,212.45Z" style="fill:#00FF00" />
<path d="M256.97,190.33A3,3 0 1 1 250.97,190.33A3,3 0 1 1 256.97,190.33Z" style="fill:#00FF00" />
<path d="M258.38,188.64A3,3 0 1 1 252.38,188.64A3,3 0 1 1 258.38,188.64Z" style="fill:#00FF00" />
<path d="M256.15,186.1A3,3 0 1 1 250.15,186.1A3,3 0 1 1 256.15,186.1Z" style="fill:#00FF00" />
<path d="M227.66,188.5A3,3 0 1 1 221.66,188.5A3,3 0 1 1 227.66,188.5Z" style="fill:#00FF00" />
<path d="M219,191.92A3,3 0 1 1 213,191.92A3,3 0 1 1 219,191.92Z" style="fill:#00FF00" />
<path d="M268.48,183.78A3,3 0 1 1 262.48,183.78A3,3 0 1 1 268.48,183.78Z" style="fill:#00FF00" />
<path d="M273.74,184.22A3,3 0 1 1 267.74,184.22A3,3 0 1 1 273.74,184.22Z" style="fill:#00FF00" />
<path d="M237.14,176.66A3,3 0 1 1 231.14,176.66A3,3 0 1 1 237.14,176.66Z" style="fill:#00FF00" />
<path d="M197.07,213.96A3,3 0 1 1 191.07,213.96A3,3 0 1 1 197.07,213.96Z" style="fill:#00FF00" />
<path d="M232.99,173.57A3,3 0 1 1 226.99,173.57A3,3 0 1 1 232.99,173.57Z" style="fill:#00FF00" />
<path d="M195.12,204.58A3,3 0 1 1 189.12,204.58A3,3 0 1 1 195.12,204.58Z" style="fill:#00FF00" />
<path d="M194.2,201.13A3,3 0 1 1 188.2,201.13A3,3 0 1 1 194.2,201.13Z" style="fill:#00FF00" />
<path d="M248.39,165.61A3,3 0 1 1 242.39,165.61A3,3 0 1 1 248.39,165.61Z" style="fill:#00FF00" />
<path d="M186.94,209.66A3,3 0 1 1 180.94,209.66A3,3 0 1 1 186.94,209.66Z" style="fill:#00FF00" />
<path d="M188.22,198.87A3,3 0 1 1 182.22,198.87A3,3 0 1 1 188.22,198.87Z" style="fill:#00FF00" />
<path d="M181.99,212.85A3,3 0 1 1 175.99,212.85A3,3 0 1 1 181.99,212.85Z" style="fill:#00FF00" />
<path d="M179.54,215.05A3,3 0 1 1 173.54,215.05A3,3 0 1 1 179.54,215.05Z" style="fill:#00FF00" />
<path d="M178.51,207.95A3,3 0 1 1 172.51,207.95A3,3 0 1 1 178.51,207.95Z" style="fill:#00FF00" />
<path d="M174.93,220.68A3,3 0 1 1 168.93,220.68A3,3 0 1 1 174.93,220.68Z" style="fill:#00FF00" />
<path d="M173,215.47A3,3 0 1 1 167,215.47A3,3 0 1 1 173,215.47Z" style="fill:#00FF00" />
<path d="M171.75,233.05A3,3 0 1 1 165.75,233.05A3,3 0 1 1 171.75,233.05Z" style="fill:#00FF00" />
<path d="M176.6,188.76A3,3 0 1 1 170.6,188.76A3,3 0 1 1 176.6,188.76Z" style="fill:#00FF00" />
<path d="M185.16,268.85A3,3 0 1 1 179.16,268.85A3,3 0 1 1 185.16,268.85Z" style="fill:#00FF00" />
<path d="M171.54,252.54A3,3 0 1 1 165.54,252.54A3,3 0 1 1 171.54,252.54Z" style="fill:#00FF00" />
<path d="M168.39,191.05A3,3 0 1 1 162.39,191.05A3,3 0 1 1 168.39,191.05Z" style="fill:#00FF00" />
<path d="M207.04,292.59A3,3 0 1 1 201.04,292.59A3,3 0 1 1 207.04,292.59Z" style="fill:#00FF00" />
<path d="M189.81,284.33A3,3 0 1 1 183.81,284.33A3,3 0 1 1 189.81,284.33Z" style="fill:#00FF00" />
<path d="M190.57,287.45A3,3 0 1 1 184.57,287.45A3,3 0 1 1 190.57,287.45Z" style="fill:#00FF00" />
<path d="M209.43,300.25A3,3 0 1 1 203.43,300.25A3,3 0 1 1 209.43,300.25Z" style="fill:#00FF00" />
<path d="M272.02,307.16A3,3 0 1 1 266.02,307.16A3,3 0 1 1 272.02,307.16Z" style="fill:#00FF00" />
<path d="M216.44,307.01A3,3 0 1 1 210.44,307.01A3,3 0 1 1 216.44,307.01Z" style="fill:#00FF00" />
<path d="M209.14,306.6A3,3 0 1 1 203.14,306.6A3,3 0 1 1 209.14,306.6Z" style="fill:#00FF00" />
<path d="M239.2,315.41A3,3 0 1 1 233.2,315.41A3,3 0 1 1 239.2,315.41Z" style="fill:#00FF00" />
<path d="M314.76,296.25A3,3 0 1 1 308.76,296.25A3,3 0 1 1 314.76,296.25Z" style="fill:#00FF00" />
<path d="M189.37,303.69A3,3 0 1 1 183.37,303.69A3,3 0 1 1 189.37,303.69Z" style="fill:#00FF00" />
<path d="M308.25,305.45A3,3 0 1 1 302.25,305.45A3,3 0 1 1 308.25,305.45Z" style="fill:#00FF00" />
<path d="M216.54,319.47A3,3 0 1 1 210.54,319.47A3,3 0 1 1 216.54,319.47Z" style="fill:#00FF00" />
<path d="M263.66,324.7A3,3 0 1 1 257.66,324.7A3,3 0 1 1 263.66,324.7Z" style="fill:#00FF00" />
<path d="M196.38,316.45A3,3 0 1 1 190.38,316.45A3,3 0 1 1 196.38,316.45Z" style="fill:#00FF00" />
<path d="M272.33,327.36A3,3 0 1 1 266.33,327.36A3,3 0 1 1 272.33,327.36Z" style="fill:#00FF00" />
<path d="M292.96,323.75A3,3 0 1 1 286.96,323.75A3,3 0 1 1 292.96,323.75Z" style="fill:#00FF00" />
<path d="M216.5,329.73A3,3 0 1 1 210.5,329.73A3,3 0 1 1 216.5,329.73Z" style="fill:#00FF00" />
<path d="M313.87,318.56A3,3 0 1 1 307.87,318.56A3,3 0 1 1 313.87,318.56Z" style="fill:#00FF00" />
<path d="M364.84,267.96A3,3 0 1 1 358.84,267.96A3,3 0 1 1 364.84,267.96Z" style="fill:#00FF00" />
<path d="M372.42,254.79A3,3 0 1 1 366.42,254.79A3,3 0 1 1 372.42,254.79Z" style="fill:#00FF00" />
<path d="M349.8,297.71A3,3 0 1 1 343.8,297.71A3,3 0 1 1 349.8,297.71Z" style="fill:#00FF00" />
<path d="M314.29,327.51A3,3 0 1 1 308.29,327.51A3,3 0 1 1 314.29,327.51Z" style="fill:#00FF00" />
<path d="M268.1,344.08A3,3 0 1 1 262.1,344.08A3,3 0 1 1 268.1,344.08Z" style="fill:#00FF00" />
<path d="M294.13,340.23A3,3 0 1 1 288.13,340.23A3,3 0 1 1 294.13,340.23Z" style="fill:#00FF00" />
<path d="M345.21,313.81A3,3 0 1 1 339.21,313.81A3,3 0 1 1 345.21,313.81Z" style="fill:#00FF00" />
<path d="M282.82,347.45A3,3 0 1 1 276.82,347.45A3,3 0 1 1 282.82,347.45Z" style="fill:#00FF00" />
<path d="M386.95,258.6A3,3 0 1 1 380.95,258.6A3,3 0 1 1 386.95,258.6Z" style="fill:#00FF00" />
<path d="M351.01,124.95A3,3 0 1 1 345.01,124.95A3,3 0 1 1 351.01,124.95Z" style="fill:#00FF00" />
<path d="M396.85,211.13A3,3 0 1 1 390.85,211.13A3,3 0 1 1 396.85,211.13Z" style="fill:#00FF00" />
<path d="M385.25,162.5A3,3 0 1 1 379.25,162.5A3,3 0 1 1 385.25,162.5Z" style="fill:#00FF00" />
<path d="M382.61,153.37A3,3 0 1 1 376.61,153.37A3,3 0 1 1 382.61,153.37Z" style="fill:#00FF00" />
<path d="M288.97,83.636A3,3 0 1 1 282.97,83.636A3,3 0 1 1 288.97,83.636Z" style="fill:#00FF00" />
<path d="M400.55,183.78A3,3 0 1 1 394.55,183.78A3,3 0 1 1 400.55,183.78Z" style="fill:#00FF00" />
<path d="M349.45,107.78A3,3 0 1 1 343.45,107.78A3,3 0 1 1 349.45,107.78Z" style="fill:#00FF00" />
<path d="M374.84,128.51A3,3 0 1 1 368.84,128.51A3,3 0 1 1 374.84,128.51Z" style="fill:#00FF00" />
<path d="M267.14,71.77A3,3 0 1 1 261.14,71.77A3,3 0 1 1 267.14,71.77Z" style="fill:#00FF00" />
<path d="M312.13,80.465A3,3 0 1 1 306.13,80.465A3,3 0 1 1 312.13,80.465Z" style="fill:#00FF00" />
<path d="M371.17,115.57A3,3 0 1 1 365.17,115.57A3,3 0 1 1 371.17,115.57Z" style="fill:#00FF00" />
<path d="M256.49,65.03A3,3 0 1 1 250.49,65.03A3,3 0 1 1 256.49,65.03Z" style="fill:#00FF00" />
<path d="M345.93,90.555A3,3 0 1 1 339.93,90.555A3,3 0 1 1 345.93,90.555Z" style="fill:#00FF00" />
<path d="M268.03,61.92A3,3 0 1 1 262.03,61.92A3,3 0 1 1 268.03,61.92Z" style="fill:#00FF00" />
<path d="M320.31,72.936A3,3 0 1 1 314.31,72.936A3,3 0 1 1 320.31,72.936Z" style="fill:#00FF00" />
<path d="M339.94,80.021A3,3 0 1 1 333.94,80.021A3,3 0 1 1 339.94,80.021Z" style="fill:#00FF00" />
<path d="M227.84,56.033A3,3 0 1 1 221.84,56.033A3,3 0 1 1 227.84,56.033Z" style="fill:#00FF00" />
<path d="M84.301,145.68A3,3 0 1 1 78.301,145.68A3,3 0 1 1 84.301,145.68Z" style="fill:#00FF00" />
<path d="M157.38,72.804A3,3 0 1 1 151.38,72.804A3,3 0 1 1 157.38,72.804Z" style="fill:#00FF00" />
<path d="M165.37,66.719A3,3 0 1 1 159.37,66.719A3,3 0 1 1 165.37,66.719Z" style="fill:#00FF00" />
<path d="M169.03,62.938A3,3 0 1 1 163.03,62.938A3,3 0 1 1 169.03,62.938Z" style="fill:#00FF00" />
<path d="M88.993,122.69A3,3 0 1 1 82.993,122.69A3,3 0 1 1 88.993,122.69Z" style="fill:#00FF00" />
<path d="M248.67,43.117A3,3 0 1 1 242.67,43.117A3,3 0 1 1 248.67,43.117Z" style="fill:#00FF00" />
<path d="M167.51,57.058A3,3 0 1 1 161.51,57.058A3,3 0 1 1 167.51,57.058Z" style="fill:#00FF00" />
<path d="M49.872,214.3A3,3 0 1 1 43.872,214.3A3,3 0 1 1 49.872,214.3Z" style="fill:#00FF00" />
<path d="M86.023,112.8A3,3 0 1 1 80.023,112.8A3,3 0 1 1 86.023,112.8Z" style="fill:#00FF00" />
<path d="M52.576,172.06A3,3 0 1 1 46.576,172.06A3,3 0 1 1 52.576,172.06Z" style="fill:#00FF00" />
<path d="M109.56,82.739A3,3 0 1 1 103.56,82.739A3,3 0 1 1 109.56,82.739Z" style="fill:#00FF00" />
<path d="M110.91,78.959A3,3 0 1 1 104.91,78.959A3,3 0 1 1 110.91,78.959Z" style="fill:#00FF00" />
<path d="M44.343,177.71A3,3 0 1 1 38.343,177.71A3,3 0 1 1 44.343,177.71Z" style="fill:#00FF00" />
<path d="M38.08,242.3A3,3 0 1 1 32.08,242.3A3,3 0 1 1 38.08,242.3Z" style="fill:#00FF00" />
<path d="M70.624,329.58A3,3 0 1 1 64.624,329.58A3,3 0 1 1 70.624,329.58Z" style="fill:#00FF00" />
</g>
</svg>
